# xmcd
#
# Track frame offsets:
#	150
#	9825
#	20879
#	31443
#	41918
#	53358
#	62658
#	72492
#	82665
#	91955
#	103510
#	114339
#	123942
#	134991
#	145446
#	157118
#	170328
#	181072
#	193738
#	205706
#	215890
#
# Disc length: 3020 seconds
#
# Revision: 1
# Processed by: cddbd v1.5.2PL0 Copyright (c) Steve Scherf et al.
# Submitted via: audiograbber 1.83.01
#
DISCID=2c0bca15
DTITLE=Earl King - The Singles Collection 1953-1962 CD1
DYEAR=2019
DGENRE=Blues
TTITLE0=Have you gone crazy? 
TTITLE1=Beggin' at your mercy 
TTITLE2=A mother's love 
TTITLE3=I'm your best bet, baby 
TTITLE4=What can I do 
TTITLE5='til I Say Well Done 
TTITLE6=No one but me 
TTITLE7=Eating and sleeping 
TTITLE8=Funny face 
TTITLE9=Sittin' and wonderin' 
TTITLE10=Those Lonely, Lonely Nights 
TTITLE11=Baby you can get your gun 
TTITLE12=My Love Is Strong 
TTITLE13=Little Girl 
TTITLE14=It must have been love 
TTITLE15=I'll take you back home 
TTITLE16=Mother Told Me Not To Go 
TTITLE17=Is everything alright 
TTITLE18=Those Lonely, Lonely Feelings 
TTITLE19=You can fly high 
TTITLE20=I'll never get tired 
EXTD=
EXTT0=
EXTT1=
EXTT2=
EXTT3=
EXTT4=
EXTT5=
EXTT6=
EXTT7=
EXTT8=
EXTT9=
EXTT10=
EXTT11=
EXTT12=
EXTT13=
EXTT14=
EXTT15=
EXTT16=
EXTT17=
EXTT18=
EXTT19=
EXTT20=
PLAYORDER=
